<?xml version="1.0" encoding="utf-8" standalone="no"?>
<!DOCTYPE svg PUBLIC "-//W3C//DTD SVG 1.1//EN"
  "http://www.w3.org/Graphics/SVG/1.1/DTD/svg11.dtd">
<!-- Created with matplotlib (https://matplotlib.org/) -->
<svg height="345.6pt" version="1.1" viewBox="0 0 460.8 345.6" width="460.8pt" xmlns="http://www.w3.org/2000/svg" xmlns:xlink="http://www.w3.org/1999/xlink">
 <defs>
  <style type="text/css">
*{stroke-linecap:butt;stroke-linejoin:round;}
  </style>
 </defs>
 <g id="figure_1">
  <g id="patch_1">
   <path d="M 0 345.6 
L 460.8 345.6 
L 460.8 0 
L 0 0 
z
" style="fill:#ffffff;"/>
  </g>
  <g id="axes_1">
   <g id="patch_2">
    <path d="M 57.6 307.584 
L 414.72 307.584 
L 414.72 41.472 
L 57.6 41.472 
z
" style="fill:#eaeaf2;"/>
   </g>
   <g id="matplotlib.axis_1">
    <g id="xtick_1">
     <g id="line2d_1">
      <path clip-path="url(#p0bff3ad8ee)" d="M 57.6 307.584 
L 57.6 41.472 
" style="fill:none;stroke:#ffffff;stroke-linecap:round;"/>
     </g>
     <g id="text_1">
      <!-- 0.0 -->
      <defs>
       <path d="M 4.15625 35.296875 
Q 4.15625 48 6.765625 55.734375 
Q 9.375 63.484375 14.515625 67.671875 
Q 19.671875 71.875 27.484375 71.875 
Q 33.25 71.875 37.59375 69.546875 
Q 41.9375 67.234375 44.765625 62.859375 
Q 47.609375 58.5 49.21875 52.21875 
Q 50.828125 45.953125 50.828125 35.296875 
Q 50.828125 22.703125 48.234375 14.96875 
Q 45.65625 7.234375 40.5 3 
Q 35.359375 -1.21875 27.484375 -1.21875 
Q 17.140625 -1.21875 11.234375 6.203125 
Q 4.15625 15.140625 4.15625 35.296875 
z
M 13.1875 35.296875 
Q 13.1875 17.671875 17.3125 11.828125 
Q 21.4375 6 27.484375 6 
Q 33.546875 6 37.671875 11.859375 
Q 41.796875 17.71875 41.796875 35.296875 
Q 41.796875 52.984375 37.671875 58.78125 
Q 33.546875 64.59375 27.390625 64.59375 
Q 21.34375 64.59375 17.71875 59.46875 
Q 13.1875 52.9375 13.1875 35.296875 
z
" id="ArialMT-48"/>
       <path d="M 9.078125 0 
L 9.078125 10.015625 
L 19.09375 10.015625 
L 19.09375 0 
z
" id="ArialMT-46"/>
      </defs>
      <g style="fill:#262626;" transform="translate(49.955 324.957594)scale(0.11 -0.11)">
       <use xlink:href="#ArialMT-48"/>
       <use x="55.615234" xlink:href="#ArialMT-46"/>
       <use x="83.398438" xlink:href="#ArialMT-48"/>
      </g>
     </g>
    </g>
    <g id="xtick_2">
     <g id="line2d_2">
      <path clip-path="url(#p0bff3ad8ee)" d="M 129.024 307.584 
L 129.024 41.472 
" style="fill:none;stroke:#ffffff;stroke-linecap:round;"/>
     </g>
     <g id="text_2">
      <!-- 0.2 -->
      <defs>
       <path d="M 50.34375 8.453125 
L 50.34375 0 
L 3.03125 0 
Q 2.9375 3.171875 4.046875 6.109375 
Q 5.859375 10.9375 9.828125 15.625 
Q 13.8125 20.3125 21.34375 26.46875 
Q 33.015625 36.03125 37.109375 41.625 
Q 41.21875 47.21875 41.21875 52.203125 
Q 41.21875 57.421875 37.46875 61 
Q 33.734375 64.59375 27.734375 64.59375 
Q 21.390625 64.59375 17.578125 60.78125 
Q 13.765625 56.984375 13.71875 50.25 
L 4.6875 51.171875 
Q 5.609375 61.28125 11.65625 66.578125 
Q 17.71875 71.875 27.9375 71.875 
Q 38.234375 71.875 44.234375 66.15625 
Q 50.25 60.453125 50.25 52 
Q 50.25 47.703125 48.484375 43.546875 
Q 46.734375 39.40625 42.65625 34.8125 
Q 38.578125 30.21875 29.109375 22.21875 
Q 21.1875 15.578125 18.9375 13.203125 
Q 16.703125 10.84375 15.234375 8.453125 
z
" id="ArialMT-50"/>
      </defs>
      <g style="fill:#262626;" transform="translate(121.379 324.957594)scale(0.11 -0.11)">
       <use xlink:href="#ArialMT-48"/>
       <use x="55.615234" xlink:href="#ArialMT-46"/>
       <use x="83.398438" xlink:href="#ArialMT-50"/>
      </g>
     </g>
    </g>
    <g id="xtick_3">
     <g id="line2d_3">
      <path clip-path="url(#p0bff3ad8ee)" d="M 200.448 307.584 
L 200.448 41.472 
" style="fill:none;stroke:#ffffff;stroke-linecap:round;"/>
     </g>
     <g id="text_3">
      <!-- 0.4 -->
      <defs>
       <path d="M 32.328125 0 
L 32.328125 17.140625 
L 1.265625 17.140625 
L 1.265625 25.203125 
L 33.9375 71.578125 
L 41.109375 71.578125 
L 41.109375 25.203125 
L 50.78125 25.203125 
L 50.78125 17.140625 
L 41.109375 17.140625 
L 41.109375 0 
z
M 32.328125 25.203125 
L 32.328125 57.46875 
L 9.90625 25.203125 
z
" id="ArialMT-52"/>
      </defs>
      <g style="fill:#262626;" transform="translate(192.803 324.957594)scale(0.11 -0.11)">
       <use xlink:href="#ArialMT-48"/>
       <use x="55.615234" xlink:href="#ArialMT-46"/>
       <use x="83.398438" xlink:href="#ArialMT-52"/>
      </g>
     </g>
    </g>
    <g id="xtick_4">
     <g id="line2d_4">
      <path clip-path="url(#p0bff3ad8ee)" d="M 271.872 307.584 
L 271.872 41.472 
" style="fill:none;stroke:#ffffff;stroke-linecap:round;"/>
     </g>
     <g id="text_4">
      <!-- 0.6 -->
      <defs>
       <path d="M 49.75 54.046875 
L 41.015625 53.375 
Q 39.84375 58.546875 37.703125 60.890625 
Q 34.125 64.65625 28.90625 64.65625 
Q 24.703125 64.65625 21.53125 62.3125 
Q 17.390625 59.28125 14.984375 53.46875 
Q 12.59375 47.65625 12.5 36.921875 
Q 15.671875 41.75 20.265625 44.09375 
Q 24.859375 46.4375 29.890625 46.4375 
Q 38.671875 46.4375 44.84375 39.96875 
Q 51.03125 33.5 51.03125 23.25 
Q 51.03125 16.5 48.125 10.71875 
Q 45.21875 4.9375 40.140625 1.859375 
Q 35.0625 -1.21875 28.609375 -1.21875 
Q 17.625 -1.21875 10.6875 6.859375 
Q 3.765625 14.9375 3.765625 33.5 
Q 3.765625 54.25 11.421875 63.671875 
Q 18.109375 71.875 29.4375 71.875 
Q 37.890625 71.875 43.28125 67.140625 
Q 48.6875 62.40625 49.75 54.046875 
z
M 13.875 23.1875 
Q 13.875 18.65625 15.796875 14.5 
Q 17.71875 10.359375 21.1875 8.171875 
Q 24.65625 6 28.46875 6 
Q 34.03125 6 38.03125 10.484375 
Q 42.046875 14.984375 42.046875 22.703125 
Q 42.046875 30.125 38.078125 34.390625 
Q 34.125 38.671875 28.125 38.671875 
Q 22.171875 38.671875 18.015625 34.390625 
Q 13.875 30.125 13.875 23.1875 
z
" id="ArialMT-54"/>
      </defs>
      <g style="fill:#262626;" transform="translate(264.227 324.957594)scale(0.11 -0.11)">
       <use xlink:href="#ArialMT-48"/>
       <use x="55.615234" xlink:href="#ArialMT-46"/>
       <use x="83.398438" xlink:href="#ArialMT-54"/>
      </g>
     </g>
    </g>
    <g id="xtick_5">
     <g id="line2d_5">
      <path clip-path="url(#p0bff3ad8ee)" d="M 343.296 307.584 
L 343.296 41.472 
" style="fill:none;stroke:#ffffff;stroke-linecap:round;"/>
     </g>
     <g id="text_5">
      <!-- 0.8 -->
      <defs>
       <path d="M 17.671875 38.8125 
Q 12.203125 40.828125 9.5625 44.53125 
Q 6.9375 48.25 6.9375 53.421875 
Q 6.9375 61.234375 12.546875 66.546875 
Q 18.171875 71.875 27.484375 71.875 
Q 36.859375 71.875 42.578125 66.421875 
Q 48.296875 60.984375 48.296875 53.171875 
Q 48.296875 48.1875 45.671875 44.5 
Q 43.0625 40.828125 37.75 38.8125 
Q 44.34375 36.671875 47.78125 31.875 
Q 51.21875 27.09375 51.21875 20.453125 
Q 51.21875 11.28125 44.71875 5.03125 
Q 38.234375 -1.21875 27.640625 -1.21875 
Q 17.046875 -1.21875 10.546875 5.046875 
Q 4.046875 11.328125 4.046875 20.703125 
Q 4.046875 27.6875 7.59375 32.390625 
Q 11.140625 37.109375 17.671875 38.8125 
z
M 15.921875 53.71875 
Q 15.921875 48.640625 19.1875 45.40625 
Q 22.46875 42.1875 27.6875 42.1875 
Q 32.765625 42.1875 36.015625 45.375 
Q 39.265625 48.578125 39.265625 53.21875 
Q 39.265625 58.0625 35.90625 61.359375 
Q 32.5625 64.65625 27.59375 64.65625 
Q 22.5625 64.65625 19.234375 61.421875 
Q 15.921875 58.203125 15.921875 53.71875 
z
M 13.09375 20.65625 
Q 13.09375 16.890625 14.875 13.375 
Q 16.65625 9.859375 20.171875 7.921875 
Q 23.6875 6 27.734375 6 
Q 34.03125 6 38.125 10.046875 
Q 42.234375 14.109375 42.234375 20.359375 
Q 42.234375 26.703125 38.015625 30.859375 
Q 33.796875 35.015625 27.4375 35.015625 
Q 21.234375 35.015625 17.15625 30.90625 
Q 13.09375 26.8125 13.09375 20.65625 
z
" id="ArialMT-56"/>
      </defs>
      <g style="fill:#262626;" transform="translate(335.651 324.957594)scale(0.11 -0.11)">
       <use xlink:href="#ArialMT-48"/>
       <use x="55.615234" xlink:href="#ArialMT-46"/>
       <use x="83.398438" xlink:href="#ArialMT-56"/>
      </g>
     </g>
    </g>
    <g id="xtick_6">
     <g id="line2d_6">
      <path clip-path="url(#p0bff3ad8ee)" d="M 414.72 307.584 
L 414.72 41.472 
" style="fill:none;stroke:#ffffff;stroke-linecap:round;"/>
     </g>
     <g id="text_6">
      <!-- 1.0 -->
      <defs>
       <path d="M 37.25 0 
L 28.46875 0 
L 28.46875 56 
Q 25.296875 52.984375 20.140625 49.953125 
Q 14.984375 46.921875 10.890625 45.40625 
L 10.890625 53.90625 
Q 18.265625 57.375 23.78125 62.296875 
Q 29.296875 67.234375 31.59375 71.875 
L 37.25 71.875 
z
" id="ArialMT-49"/>
      </defs>
      <g style="fill:#262626;" transform="translate(407.075 324.957594)scale(0.11 -0.11)">
       <use xlink:href="#ArialMT-49"/>
       <use x="55.615234" xlink:href="#ArialMT-46"/>
       <use x="83.398438" xlink:href="#ArialMT-48"/>
      </g>
     </g>
    </g>
    <g id="text_7">
     <!-- JS-Divergence -->
     <defs>
      <path d="M 2.875 20.3125 
L 11.421875 21.484375 
Q 11.765625 13.28125 14.5 10.25 
Q 17.234375 7.234375 22.078125 7.234375 
Q 25.640625 7.234375 28.21875 8.859375 
Q 30.8125 10.5 31.78125 13.296875 
Q 32.765625 16.109375 32.765625 22.265625 
L 32.765625 71.578125 
L 42.234375 71.578125 
L 42.234375 22.796875 
Q 42.234375 13.8125 40.0625 8.875 
Q 37.890625 3.953125 33.171875 1.359375 
Q 28.46875 -1.21875 22.125 -1.21875 
Q 12.703125 -1.21875 7.6875 4.203125 
Q 2.6875 9.625 2.875 20.3125 
z
" id="ArialMT-74"/>
      <path d="M 4.5 23 
L 13.421875 23.78125 
Q 14.0625 18.40625 16.375 14.96875 
Q 18.703125 11.53125 23.578125 9.40625 
Q 28.46875 7.28125 34.578125 7.28125 
Q 39.984375 7.28125 44.140625 8.890625 
Q 48.296875 10.5 50.3125 13.296875 
Q 52.34375 16.109375 52.34375 19.4375 
Q 52.34375 22.796875 50.390625 25.3125 
Q 48.4375 27.828125 43.953125 29.546875 
Q 41.0625 30.671875 31.203125 33.03125 
Q 21.34375 35.40625 17.390625 37.5 
Q 12.25 40.1875 9.734375 44.15625 
Q 7.234375 48.140625 7.234375 53.078125 
Q 7.234375 58.5 10.296875 63.203125 
Q 13.375 67.921875 19.28125 70.359375 
Q 25.203125 72.796875 32.421875 72.796875 
Q 40.375 72.796875 46.453125 70.234375 
Q 52.546875 67.671875 55.8125 62.6875 
Q 59.078125 57.71875 59.328125 51.421875 
L 50.25 50.734375 
Q 49.515625 57.515625 45.28125 60.984375 
Q 41.0625 64.453125 32.8125 64.453125 
Q 24.21875 64.453125 20.28125 61.296875 
Q 16.359375 58.15625 16.359375 53.71875 
Q 16.359375 49.859375 19.140625 47.359375 
Q 21.875 44.875 33.421875 42.265625 
Q 44.96875 39.65625 49.265625 37.703125 
Q 55.515625 34.8125 58.484375 30.390625 
Q 61.46875 25.984375 61.46875 20.21875 
Q 61.46875 14.5 58.203125 9.4375 
Q 54.9375 4.390625 48.796875 1.578125 
Q 42.671875 -1.21875 35.015625 -1.21875 
Q 25.296875 -1.21875 18.71875 1.609375 
Q 12.15625 4.4375 8.421875 10.125 
Q 4.6875 15.828125 4.5 23 
z
" id="ArialMT-83"/>
      <path d="M 3.171875 21.484375 
L 3.171875 30.328125 
L 30.171875 30.328125 
L 30.171875 21.484375 
z
" id="ArialMT-45"/>
      <path d="M 7.71875 0 
L 7.71875 71.578125 
L 32.375 71.578125 
Q 40.71875 71.578125 45.125 70.5625 
Q 51.265625 69.140625 55.609375 65.4375 
Q 61.28125 60.640625 64.078125 53.1875 
Q 66.890625 45.75 66.890625 36.1875 
Q 66.890625 28.03125 64.984375 21.734375 
Q 63.09375 15.4375 60.109375 11.296875 
Q 57.125 7.171875 53.578125 4.796875 
Q 50.046875 2.4375 45.046875 1.21875 
Q 40.046875 0 33.546875 0 
z
M 17.1875 8.453125 
L 32.46875 8.453125 
Q 39.546875 8.453125 43.578125 9.765625 
Q 47.609375 11.078125 50 13.484375 
Q 53.375 16.84375 55.25 22.53125 
Q 57.125 28.21875 57.125 36.328125 
Q 57.125 47.5625 53.4375 53.59375 
Q 49.75 59.625 44.484375 61.671875 
Q 40.671875 63.140625 32.234375 63.140625 
L 17.1875 63.140625 
z
" id="ArialMT-68"/>
      <path d="M 6.640625 61.46875 
L 6.640625 71.578125 
L 15.4375 71.578125 
L 15.4375 61.46875 
z
M 6.640625 0 
L 6.640625 51.859375 
L 15.4375 51.859375 
L 15.4375 0 
z
" id="ArialMT-105"/>
      <path d="M 21 0 
L 1.265625 51.859375 
L 10.546875 51.859375 
L 21.6875 20.796875 
Q 23.484375 15.765625 25 10.359375 
Q 26.171875 14.453125 28.265625 20.21875 
L 39.796875 51.859375 
L 48.828125 51.859375 
L 29.203125 0 
z
" id="ArialMT-118"/>
      <path d="M 42.09375 16.703125 
L 51.171875 15.578125 
Q 49.03125 7.625 43.21875 3.21875 
Q 37.40625 -1.171875 28.375 -1.171875 
Q 17 -1.171875 10.328125 5.828125 
Q 3.65625 12.84375 3.65625 25.484375 
Q 3.65625 38.578125 10.390625 45.796875 
Q 17.140625 53.03125 27.875 53.03125 
Q 38.28125 53.03125 44.875 45.953125 
Q 51.46875 38.875 51.46875 26.03125 
Q 51.46875 25.25 51.421875 23.6875 
L 12.75 23.6875 
Q 13.234375 15.140625 17.578125 10.59375 
Q 21.921875 6.0625 28.421875 6.0625 
Q 33.25 6.0625 36.671875 8.59375 
Q 40.09375 11.140625 42.09375 16.703125 
z
M 13.234375 30.90625 
L 42.1875 30.90625 
Q 41.609375 37.453125 38.875 40.71875 
Q 34.671875 45.796875 27.984375 45.796875 
Q 21.921875 45.796875 17.796875 41.75 
Q 13.671875 37.703125 13.234375 30.90625 
z
" id="ArialMT-101"/>
      <path d="M 6.5 0 
L 6.5 51.859375 
L 14.40625 51.859375 
L 14.40625 44 
Q 17.4375 49.515625 20 51.265625 
Q 22.5625 53.03125 25.640625 53.03125 
Q 30.078125 53.03125 34.671875 50.203125 
L 31.640625 42.046875 
Q 28.421875 43.953125 25.203125 43.953125 
Q 22.3125 43.953125 20.015625 42.21875 
Q 17.71875 40.484375 16.75 37.40625 
Q 15.28125 32.71875 15.28125 27.15625 
L 15.28125 0 
z
" id="ArialMT-114"/>
      <path d="M 4.984375 -4.296875 
L 13.53125 -5.5625 
Q 14.0625 -9.515625 16.5 -11.328125 
Q 19.78125 -13.765625 25.4375 -13.765625 
Q 31.546875 -13.765625 34.859375 -11.328125 
Q 38.1875 -8.890625 39.359375 -4.5 
Q 40.046875 -1.8125 39.984375 6.78125 
Q 34.234375 0 25.640625 0 
Q 14.9375 0 9.078125 7.71875 
Q 3.21875 15.4375 3.21875 26.21875 
Q 3.21875 33.640625 5.90625 39.90625 
Q 8.59375 46.1875 13.6875 49.609375 
Q 18.796875 53.03125 25.6875 53.03125 
Q 34.859375 53.03125 40.828125 45.609375 
L 40.828125 51.859375 
L 48.921875 51.859375 
L 48.921875 7.03125 
Q 48.921875 -5.078125 46.453125 -10.125 
Q 44 -15.1875 38.640625 -18.109375 
Q 33.296875 -21.046875 25.484375 -21.046875 
Q 16.21875 -21.046875 10.5 -16.875 
Q 4.78125 -12.703125 4.984375 -4.296875 
z
M 12.25 26.859375 
Q 12.25 16.65625 16.296875 11.96875 
Q 20.359375 7.28125 26.46875 7.28125 
Q 32.515625 7.28125 36.609375 11.9375 
Q 40.71875 16.609375 40.71875 26.5625 
Q 40.71875 36.078125 36.5 40.90625 
Q 32.28125 45.75 26.3125 45.75 
Q 20.453125 45.75 16.34375 40.984375 
Q 12.25 36.234375 12.25 26.859375 
z
" id="ArialMT-103"/>
      <path d="M 6.59375 0 
L 6.59375 51.859375 
L 14.5 51.859375 
L 14.5 44.484375 
Q 20.21875 53.03125 31 53.03125 
Q 35.6875 53.03125 39.625 51.34375 
Q 43.5625 49.65625 45.515625 46.921875 
Q 47.46875 44.1875 48.25 40.4375 
Q 48.734375 37.984375 48.734375 31.890625 
L 48.734375 0 
L 39.9375 0 
L 39.9375 31.546875 
Q 39.9375 36.921875 38.90625 39.578125 
Q 37.890625 42.234375 35.28125 43.8125 
Q 32.671875 45.40625 29.15625 45.40625 
Q 23.53125 45.40625 19.453125 41.84375 
Q 15.375 38.28125 15.375 28.328125 
L 15.375 0 
z
" id="ArialMT-110"/>
      <path d="M 40.4375 19 
L 49.078125 17.875 
Q 47.65625 8.9375 41.8125 3.875 
Q 35.984375 -1.171875 27.484375 -1.171875 
Q 16.84375 -1.171875 10.375 5.78125 
Q 3.90625 12.75 3.90625 25.734375 
Q 3.90625 34.125 6.6875 40.421875 
Q 9.46875 46.734375 15.15625 49.875 
Q 20.84375 53.03125 27.546875 53.03125 
Q 35.984375 53.03125 41.359375 48.75 
Q 46.734375 44.484375 48.25 36.625 
L 39.703125 35.296875 
Q 38.484375 40.53125 35.375 43.15625 
Q 32.28125 45.796875 27.875 45.796875 
Q 21.234375 45.796875 17.078125 41.03125 
Q 12.9375 36.28125 12.9375 25.984375 
Q 12.9375 15.53125 16.9375 10.796875 
Q 20.953125 6.0625 27.390625 6.0625 
Q 32.5625 6.0625 36.03125 9.234375 
Q 39.5 12.40625 40.4375 19 
z
" id="ArialMT-99"/>
     </defs>
     <g style="fill:#262626;" transform="translate(196.813125 339.879469)scale(0.12 -0.12)">
      <use xlink:href="#ArialMT-74"/>
      <use x="50" xlink:href="#ArialMT-83"/>
      <use x="116.699219" xlink:href="#ArialMT-45"/>
      <use x="150" xlink:href="#ArialMT-68"/>
      <use x="222.216797" xlink:href="#ArialMT-105"/>
      <use x="244.433594" xlink:href="#ArialMT-118"/>
      <use x="294.433594" xlink:href="#ArialMT-101"/>
      <use x="350.048828" xlink:href="#ArialMT-114"/>
      <use x="383.349609" xlink:href="#ArialMT-103"/>
      <use x="438.964844" xlink:href="#ArialMT-101"/>
      <use x="494.580078" xlink:href="#ArialMT-110"/>
      <use x="550.195312" xlink:href="#ArialMT-99"/>
      <use x="600.195312" xlink:href="#ArialMT-101"/>
     </g>
    </g>
   </g>
   <g id="matplotlib.axis_2">
    <g id="ytick_1">
     <g id="line2d_7">
      <path clip-path="url(#p0bff3ad8ee)" d="M 57.6 307.584 
L 414.72 307.584 
" style="fill:none;stroke:#ffffff;stroke-linecap:round;"/>
     </g>
     <g id="text_8">
      <!-- 0 -->
      <g style="fill:#262626;" transform="translate(41.982969 311.520797)scale(0.11 -0.11)">
       <use xlink:href="#ArialMT-48"/>
      </g>
     </g>
    </g>
    <g id="ytick_2">
     <g id="line2d_8">
      <path clip-path="url(#p0bff3ad8ee)" d="M 57.6 248.965695 
L 414.72 248.965695 
" style="fill:none;stroke:#ffffff;stroke-linecap:round;"/>
     </g>
     <g id="text_9">
      <!-- 1 -->
      <g style="fill:#262626;" transform="translate(41.982969 252.902491)scale(0.11 -0.11)">
       <use xlink:href="#ArialMT-49"/>
      </g>
     </g>
    </g>
    <g id="ytick_3">
     <g id="line2d_9">
      <path clip-path="url(#p0bff3ad8ee)" d="M 57.6 190.347389 
L 414.72 190.347389 
" style="fill:none;stroke:#ffffff;stroke-linecap:round;"/>
     </g>
     <g id="text_10">
      <!-- 2 -->
      <g style="fill:#262626;" transform="translate(41.982969 194.284186)scale(0.11 -0.11)">
       <use xlink:href="#ArialMT-50"/>
      </g>
     </g>
    </g>
    <g id="ytick_4">
     <g id="line2d_10">
      <path clip-path="url(#p0bff3ad8ee)" d="M 57.6 131.729084 
L 414.72 131.729084 
" style="fill:none;stroke:#ffffff;stroke-linecap:round;"/>
     </g>
     <g id="text_11">
      <!-- 3 -->
      <defs>
       <path d="M 4.203125 18.890625 
L 12.984375 20.0625 
Q 14.5 12.59375 18.140625 9.296875 
Q 21.78125 6 27 6 
Q 33.203125 6 37.46875 10.296875 
Q 41.75 14.59375 41.75 20.953125 
Q 41.75 27 37.796875 30.921875 
Q 33.84375 34.859375 27.734375 34.859375 
Q 25.25 34.859375 21.53125 33.890625 
L 22.515625 41.609375 
Q 23.390625 41.5 23.921875 41.5 
Q 29.546875 41.5 34.03125 44.421875 
Q 38.53125 47.359375 38.53125 53.46875 
Q 38.53125 58.296875 35.25 61.46875 
Q 31.984375 64.65625 26.8125 64.65625 
Q 21.6875 64.65625 18.265625 61.421875 
Q 14.84375 58.203125 13.875 51.765625 
L 5.078125 53.328125 
Q 6.6875 62.15625 12.390625 67.015625 
Q 18.109375 71.875 26.609375 71.875 
Q 32.46875 71.875 37.390625 69.359375 
Q 42.328125 66.84375 44.9375 62.5 
Q 47.5625 58.15625 47.5625 53.265625 
Q 47.5625 48.640625 45.0625 44.828125 
Q 42.578125 41.015625 37.703125 38.765625 
Q 44.046875 37.3125 47.5625 32.6875 
Q 51.078125 28.078125 51.078125 21.140625 
Q 51.078125 11.765625 44.234375 5.25 
Q 37.40625 -1.265625 26.953125 -1.265625 
Q 17.53125 -1.265625 11.296875 4.34375 
Q 5.078125 9.96875 4.203125 18.890625 
z
" id="ArialMT-51"/>
      </defs>
      <g style="fill:#262626;" transform="translate(41.982969 135.66588)scale(0.11 -0.11)">
       <use xlink:href="#ArialMT-51"/>
      </g>
     </g>
    </g>
    <g id="ytick_5">
     <g id="line2d_11">
      <path clip-path="url(#p0bff3ad8ee)" d="M 57.6 73.110778 
L 414.72 73.110778 
" style="fill:none;stroke:#ffffff;stroke-linecap:round;"/>
     </g>
     <g id="text_12">
      <!-- 4 -->
      <g style="fill:#262626;" transform="translate(41.982969 77.047575)scale(0.11 -0.11)">
       <use xlink:href="#ArialMT-52"/>
      </g>
     </g>
    </g>
    <g id="text_13">
     <!-- Density -->
     <defs>
      <path d="M 3.078125 15.484375 
L 11.765625 16.84375 
Q 12.5 11.625 15.84375 8.84375 
Q 19.1875 6.0625 25.203125 6.0625 
Q 31.25 6.0625 34.171875 8.515625 
Q 37.109375 10.984375 37.109375 14.3125 
Q 37.109375 17.28125 34.515625 19 
Q 32.71875 20.171875 25.53125 21.96875 
Q 15.875 24.421875 12.140625 26.203125 
Q 8.40625 27.984375 6.46875 31.125 
Q 4.546875 34.28125 4.546875 38.09375 
Q 4.546875 41.546875 6.125 44.5 
Q 7.71875 47.46875 10.453125 49.421875 
Q 12.5 50.921875 16.03125 51.96875 
Q 19.578125 53.03125 23.640625 53.03125 
Q 29.734375 53.03125 34.34375 51.265625 
Q 38.96875 49.515625 41.15625 46.5 
Q 43.359375 43.5 44.1875 38.484375 
L 35.59375 37.3125 
Q 35.015625 41.3125 32.203125 43.546875 
Q 29.390625 45.796875 24.265625 45.796875 
Q 18.21875 45.796875 15.625 43.796875 
Q 13.03125 41.796875 13.03125 39.109375 
Q 13.03125 37.40625 14.109375 36.03125 
Q 15.1875 34.625 17.484375 33.6875 
Q 18.796875 33.203125 25.25 31.453125 
Q 34.578125 28.953125 38.25 27.359375 
Q 41.9375 25.78125 44.03125 22.75 
Q 46.140625 19.734375 46.140625 15.234375 
Q 46.140625 10.84375 43.578125 6.953125 
Q 41.015625 3.078125 36.171875 0.953125 
Q 31.34375 -1.171875 25.25 -1.171875 
Q 15.140625 -1.171875 9.84375 3.03125 
Q 4.546875 7.234375 3.078125 15.484375 
z
" id="ArialMT-115"/>
      <path d="M 25.78125 7.859375 
L 27.046875 0.09375 
Q 23.34375 -0.6875 20.40625 -0.6875 
Q 15.625 -0.6875 12.984375 0.828125 
Q 10.359375 2.34375 9.28125 4.8125 
Q 8.203125 7.28125 8.203125 15.1875 
L 8.203125 45.015625 
L 1.765625 45.015625 
L 1.765625 51.859375 
L 8.203125 51.859375 
L 8.203125 64.703125 
L 16.9375 69.96875 
L 16.9375 51.859375 
L 25.78125 51.859375 
L 25.78125 45.015625 
L 16.9375 45.015625 
L 16.9375 14.703125 
Q 16.9375 10.9375 17.40625 9.859375 
Q 17.875 8.796875 18.921875 8.15625 
Q 19.96875 7.515625 21.921875 7.515625 
Q 23.390625 7.515625 25.78125 7.859375 
z
" id="ArialMT-116"/>
      <path d="M 6.203125 -19.96875 
L 5.21875 -11.71875 
Q 8.109375 -12.5 10.25 -12.5 
Q 13.1875 -12.5 14.9375 -11.515625 
Q 16.703125 -10.546875 17.828125 -8.796875 
Q 18.65625 -7.46875 20.515625 -2.25 
Q 20.75 -1.515625 21.296875 -0.09375 
L 1.609375 51.859375 
L 11.078125 51.859375 
L 21.875 21.828125 
Q 23.96875 16.109375 25.640625 9.8125 
Q 27.15625 15.875 29.25 21.625 
L 40.328125 51.859375 
L 49.125 51.859375 
L 29.390625 -0.875 
Q 26.21875 -9.421875 24.46875 -12.640625 
Q 22.125 -17 19.09375 -19.015625 
Q 16.0625 -21.046875 11.859375 -21.046875 
Q 9.328125 -21.046875 6.203125 -19.96875 
z
" id="ArialMT-121"/>
     </defs>
     <g style="fill:#262626;" transform="translate(35.457344 194.53425)rotate(-90)scale(0.12 -0.12)">
      <use xlink:href="#ArialMT-68"/>
      <use x="72.216797" xlink:href="#ArialMT-101"/>
      <use x="127.832031" xlink:href="#ArialMT-110"/>
      <use x="183.447266" xlink:href="#ArialMT-115"/>
      <use x="233.447266" xlink:href="#ArialMT-105"/>
      <use x="255.664062" xlink:href="#ArialMT-116"/>
      <use x="283.447266" xlink:href="#ArialMT-121"/>
     </g>
    </g>
   </g>
   <g id="PolyCollection_1">
    <defs>
     <path d="M 15.424769 -38.543231 
L 15.424769 -38.016 
L 17.554884 -38.016 
L 19.684999 -38.016 
L 21.815114 -38.016 
L 23.945229 -38.016 
L 26.075344 -38.016 
L 28.205459 -38.016 
L 30.335574 -38.016 
L 32.465689 -38.016 
L 34.595804 -38.016 
L 36.725919 -38.016 
L 38.856034 -38.016 
L 40.986149 -38.016 
L 43.116264 -38.016 
L 45.246379 -38.016 
L 47.376494 -38.016 
L 49.506609 -38.016 
L 51.636724 -38.016 
L 53.766839 -38.016 
L 55.896954 -38.016 
L 58.027069 -38.016 
L 60.157184 -38.016 
L 62.287299 -38.016 
L 64.417414 -38.016 
L 66.547529 -38.016 
L 68.677644 -38.016 
L 70.807759 -38.016 
L 72.937874 -38.016 
L 75.067989 -38.016 
L 77.198104 -38.016 
L 79.328219 -38.016 
L 81.458334 -38.016 
L 83.588449 -38.016 
L 85.718564 -38.016 
L 87.848679 -38.016 
L 89.978794 -38.016 
L 92.108909 -38.016 
L 94.239024 -38.016 
L 96.369139 -38.016 
L 98.499254 -38.016 
L 100.629369 -38.016 
L 102.759484 -38.016 
L 104.889599 -38.016 
L 107.019714 -38.016 
L 109.149829 -38.016 
L 111.279944 -38.016 
L 113.410059 -38.016 
L 115.540174 -38.016 
L 117.670289 -38.016 
L 119.800404 -38.016 
L 121.930519 -38.016 
L 124.060634 -38.016 
L 126.190749 -38.016 
L 128.320864 -38.016 
L 130.450979 -38.016 
L 132.581094 -38.016 
L 134.711209 -38.016 
L 136.841324 -38.016 
L 138.971439 -38.016 
L 141.101554 -38.016 
L 143.231669 -38.016 
L 145.361784 -38.016 
L 147.491899 -38.016 
L 149.622014 -38.016 
L 151.752129 -38.016 
L 153.882244 -38.016 
L 156.012359 -38.016 
L 158.142474 -38.016 
L 160.272589 -38.016 
L 162.402704 -38.016 
L 164.532819 -38.016 
L 166.662934 -38.016 
L 168.793049 -38.016 
L 170.923164 -38.016 
L 173.053279 -38.016 
L 175.183394 -38.016 
L 177.313509 -38.016 
L 179.443624 -38.016 
L 181.573739 -38.016 
L 183.703854 -38.016 
L 185.833969 -38.016 
L 187.964084 -38.016 
L 190.094199 -38.016 
L 192.224314 -38.016 
L 194.354429 -38.016 
L 196.484544 -38.016 
L 198.61466 -38.016 
L 200.744775 -38.016 
L 202.87489 -38.016 
L 205.005005 -38.016 
L 207.13512 -38.016 
L 209.265235 -38.016 
L 211.39535 -38.016 
L 213.525465 -38.016 
L 215.65558 -38.016 
L 217.785695 -38.016 
L 219.91581 -38.016 
L 222.045925 -38.016 
L 224.17604 -38.016 
L 226.306155 -38.016 
L 228.43627 -38.016 
L 230.566385 -38.016 
L 232.6965 -38.016 
L 234.826615 -38.016 
L 236.95673 -38.016 
L 239.086845 -38.016 
L 241.21696 -38.016 
L 243.347075 -38.016 
L 245.47719 -38.016 
L 247.607305 -38.016 
L 249.73742 -38.016 
L 251.867535 -38.016 
L 253.99765 -38.016 
L 256.127765 -38.016 
L 258.25788 -38.016 
L 260.387995 -38.016 
L 262.51811 -38.016 
L 264.648225 -38.016 
L 266.77834 -38.016 
L 268.908455 -38.016 
L 271.03857 -38.016 
L 273.168685 -38.016 
L 275.2988 -38.016 
L 277.428915 -38.016 
L 279.55903 -38.016 
L 281.689145 -38.016 
L 283.81926 -38.016 
L 285.949375 -38.016 
L 285.949375 -38.404433 
L 285.949375 -38.404433 
L 283.81926 -38.353241 
L 281.689145 -38.374897 
L 279.55903 -38.464237 
L 277.428915 -38.623702 
L 275.2988 -38.861512 
L 273.168685 -39.189903 
L 271.03857 -39.623279 
L 268.908455 -40.176207 
L 266.77834 -40.86126 
L 264.648225 -41.686784 
L 262.51811 -42.65481 
L 260.387995 -43.75938 
L 258.25788 -44.985601 
L 256.127765 -46.309727 
L 253.99765 -47.700438 
L 251.867535 -49.121347 
L 249.73742 -50.534531 
L 247.607305 -51.904691 
L 245.47719 -53.203362 
L 243.347075 -54.412529 
L 241.21696 -55.527044 
L 239.086845 -56.555381 
L 236.95673 -57.51854 
L 234.826615 -58.447202 
L 232.6965 -59.377543 
L 230.566385 -60.346296 
L 228.43627 -61.385826 
L 226.306155 -62.519881 
L 224.17604 -63.760601 
L 222.045925 -65.10712 
L 219.91581 -66.545841 
L 217.785695 -68.052247 
L 215.65558 -69.59391 
L 213.525465 -71.134265 
L 211.39535 -72.636689 
L 209.265235 -74.068443 
L 207.13512 -75.404088 
L 205.005005 -76.628088 
L 202.87489 -77.736374 
L 200.744775 -78.736736 
L 198.61466 -79.648005 
L 196.484544 -80.498075 
L 194.354429 -81.320954 
L 192.224314 -82.15311 
L 190.094199 -83.029521 
L 187.964084 -83.979872 
L 185.833969 -85.025371 
L 183.703854 -86.176584 
L 181.573739 -87.432562 
L 179.443624 -88.781342 
L 177.313509 -90.201738 
L 175.183394 -91.666133 
L 173.053279 -93.143897 
L 170.923164 -94.605011 
L 168.793049 -96.023523 
L 166.662934 -97.380551 
L 164.532819 -98.666673 
L 162.402704 -99.883632 
L 160.272589 -101.045335 
L 158.142474 -102.178157 
L 156.012359 -103.32048 
L 153.882244 -104.52141 
L 151.752129 -105.838554 
L 149.622014 -107.334811 
L 147.491899 -109.074239 
L 145.361784 -111.117187 
L 143.231669 -113.515121 
L 141.101554 -116.305681 
L 138.971439 -119.508639 
L 136.841324 -123.12338 
L 134.711209 -127.128416 
L 132.581094 -131.483186 
L 130.450979 -136.132114 
L 128.320864 -141.010563 
L 126.190749 -146.052069 
L 124.060634 -151.196077 
L 121.930519 -156.395324 
L 119.800404 -161.622087 
L 117.670289 -166.872606 
L 115.540174 -172.169216 
L 113.410059 -177.55982 
L 111.279944 -183.114558 
L 109.149829 -188.919613 
L 107.019714 -195.068296 
L 104.889599 -201.649698 
L 102.759484 -208.735496 
L 100.629369 -216.365766 
L 98.499254 -224.535014 
L 96.369139 -233.179905 
L 94.239024 -242.170294 
L 92.108909 -251.305142 
L 89.978794 -260.314556 
L 87.848679 -268.868633 
L 85.718564 -276.593066 
L 83.588449 -283.090614 
L 81.458334 -287.966778 
L 79.328219 -290.857455 
L 77.198104 -291.456 
L 75.067989 -289.537195 
L 72.937874 -284.975906 
L 70.807759 -277.758804 
L 68.677644 -267.988227 
L 66.547529 -255.877976 
L 64.417414 -241.741547 
L 62.287299 -225.973853 
L 60.157184 -209.027969 
L 58.027069 -191.388702 
L 55.896954 -173.545011 
L 53.766839 -155.963312 
L 51.636724 -139.063641 
L 49.506609 -123.200356 
L 47.376494 -108.648659 
L 45.246379 -95.59768 
L 43.116264 -84.150184 
L 40.986149 -74.328371 
L 38.856034 -66.084619 
L 36.725919 -59.315652 
L 34.595804 -53.878435 
L 32.465689 -49.606098 
L 30.335574 -46.322504 
L 28.205459 -43.85441 
L 26.075344 -42.040676 
L 23.945229 -40.738366 
L 21.815114 -39.826011 
L 19.684999 -39.204505 
L 17.554884 -38.796256 
L 15.424769 -38.543231 
z
" id="m24c8b6a0e6" style="stroke:#ffffff;stroke-opacity:0.7;"/>
    </defs>
    <g clip-path="url(#p0bff3ad8ee)">
     <use style="fill:#4c72b0;fill-opacity:0.7;stroke:#ffffff;stroke-opacity:0.7;" x="0" xlink:href="#m24c8b6a0e6" y="345.6"/>
    </g>
   </g>
   <g id="PolyCollection_2">
    <defs>
     <path d="M -39.412807 -39.158568 
L -39.412807 -38.016 
L -35.935939 -38.016 
L -32.45907 -38.016 
L -28.982201 -38.016 
L -25.505332 -38.016 
L -22.028463 -38.016 
L -18.551595 -38.016 
L -15.074726 -38.016 
L -11.597857 -38.016 
L -8.120988 -38.016 
L -4.64412 -38.016 
L -1.167251 -38.016 
L 2.309618 -38.016 
L 5.786487 -38.016 
L 9.263356 -38.016 
L 12.740224 -38.016 
L 16.217093 -38.016 
L 19.693962 -38.016 
L 23.170831 -38.016 
L 26.6477 -38.016 
L 30.124568 -38.016 
L 33.601437 -38.016 
L 37.078306 -38.016 
L 40.555175 -38.016 
L 44.032043 -38.016 
L 47.508912 -38.016 
L 50.985781 -38.016 
L 54.46265 -38.016 
L 57.939519 -38.016 
L 61.416387 -38.016 
L 64.893256 -38.016 
L 68.370125 -38.016 
L 71.846994 -38.016 
L 75.323863 -38.016 
L 78.800731 -38.016 
L 82.2776 -38.016 
L 85.754469 -38.016 
L 89.231338 -38.016 
L 92.708207 -38.016 
L 96.185075 -38.016 
L 99.661944 -38.016 
L 103.138813 -38.016 
L 106.615682 -38.016 
L 110.09255 -38.016 
L 113.569419 -38.016 
L 117.046288 -38.016 
L 120.523157 -38.016 
L 124.000026 -38.016 
L 127.476894 -38.016 
L 130.953763 -38.016 
L 134.430632 -38.016 
L 137.907501 -38.016 
L 141.38437 -38.016 
L 144.861238 -38.016 
L 148.338107 -38.016 
L 151.814976 -38.016 
L 155.291845 -38.016 
L 158.768713 -38.016 
L 162.245582 -38.016 
L 165.722451 -38.016 
L 169.19932 -38.016 
L 172.676189 -38.016 
L 176.153057 -38.016 
L 179.629926 -38.016 
L 183.106795 -38.016 
L 186.583664 -38.016 
L 190.060533 -38.016 
L 193.537401 -38.016 
L 197.01427 -38.016 
L 200.491139 -38.016 
L 203.968008 -38.016 
L 207.444876 -38.016 
L 210.921745 -38.016 
L 214.398614 -38.016 
L 217.875483 -38.016 
L 221.352352 -38.016 
L 224.82922 -38.016 
L 228.306089 -38.016 
L 231.782958 -38.016 
L 235.259827 -38.016 
L 238.736696 -38.016 
L 242.213564 -38.016 
L 245.690433 -38.016 
L 249.167302 -38.016 
L 252.644171 -38.016 
L 256.121039 -38.016 
L 259.597908 -38.016 
L 263.074777 -38.016 
L 266.551646 -38.016 
L 270.028515 -38.016 
L 273.505383 -38.016 
L 276.982252 -38.016 
L 280.459121 -38.016 
L 283.93599 -38.016 
L 287.412859 -38.016 
L 290.889727 -38.016 
L 294.366596 -38.016 
L 297.843465 -38.016 
L 301.320334 -38.016 
L 304.797202 -38.016 
L 308.274071 -38.016 
L 311.75094 -38.016 
L 315.227809 -38.016 
L 318.704678 -38.016 
L 322.181546 -38.016 
L 325.658415 -38.016 
L 329.135284 -38.016 
L 332.612153 -38.016 
L 336.089022 -38.016 
L 339.56589 -38.016 
L 343.042759 -38.016 
L 346.519628 -38.016 
L 349.996497 -38.016 
L 353.473365 -38.016 
L 356.950234 -38.016 
L 360.427103 -38.016 
L 363.903972 -38.016 
L 367.380841 -38.016 
L 370.857709 -38.016 
L 374.334578 -38.016 
L 377.811447 -38.016 
L 381.288316 -38.016 
L 384.765185 -38.016 
L 388.242053 -38.016 
L 391.718922 -38.016 
L 395.195791 -38.016 
L 398.67266 -38.016 
L 402.149529 -38.016 
L 402.149529 -39.329212 
L 402.149529 -39.329212 
L 398.67266 -39.625731 
L 395.195791 -40.066913 
L 391.718922 -40.677681 
L 388.242053 -41.488987 
L 384.765185 -42.537455 
L 381.288316 -43.864702 
L 377.811447 -45.516255 
L 374.334578 -47.540022 
L 370.857709 -49.98428 
L 367.380841 -52.895186 
L 363.903972 -56.313834 
L 360.427103 -60.27298 
L 356.950234 -64.79356 
L 353.473365 -69.88122 
L 349.996497 -75.523087 
L 346.519628 -81.685067 
L 343.042759 -88.309955 
L 339.56589 -95.316617 
L 336.089022 -102.600466 
L 332.612153 -110.035393 
L 329.135284 -117.477189 
L 325.658415 -124.768396 
L 322.181546 -131.744415 
L 318.704678 -138.240534 
L 315.227809 -144.099509 
L 311.75094 -149.179174 
L 308.274071 -153.359602 
L 304.797202 -156.549283 
L 301.320334 -158.689887 
L 297.843465 -159.75924 
L 294.366596 -159.772305 
L 290.889727 -158.780075 
L 287.412859 -156.866478 
L 283.93599 -154.143508 
L 280.459121 -150.744955 
L 276.982252 -146.819177 
L 273.505383 -142.521413 
L 270.028515 -138.006156 
L 266.551646 -133.420052 
L 263.074777 -128.895736 
L 259.597908 -124.546916 
L 256.121039 -120.464894 
L 252.644171 -116.716619 
L 249.167302 -113.344229 
L 245.690433 -110.365964 
L 242.213564 -107.778248 
L 238.736696 -105.558691 
L 235.259827 -103.669728 
L 231.782958 -102.06262 
L 228.306089 -100.681537 
L 224.82922 -99.467497 
L 221.352352 -98.361964 
L 217.875483 -97.309945 
L 214.398614 -96.262497 
L 210.921745 -95.178585 
L 207.444876 -94.026283 
L 203.968008 -92.783347 
L 200.491139 -91.437222 
L 197.01427 -89.984569 
L 193.537401 -88.430401 
L 190.060533 -86.786957 
L 186.583664 -85.072395 
L 183.106795 -83.309425 
L 179.629926 -81.523962 
L 176.153057 -79.743869 
L 172.676189 -77.997847 
L 169.19932 -76.314496 
L 165.722451 -74.721565 
L 162.245582 -73.245385 
L 158.768713 -71.910458 
L 155.291845 -70.739177 
L 151.814976 -69.751641 
L 148.338107 -68.965518 
L 144.861238 -68.395925 
L 141.38437 -68.05529 
L 137.907501 -67.953158 
L 134.430632 -68.095944 
L 130.953763 -68.486599 
L 127.476894 -69.12421 
L 124.000026 -70.003532 
L 120.523157 -71.114492 
L 117.046288 -72.441687 
L 113.569419 -73.96393 
L 110.09255 -75.653904 
L 106.615682 -77.477971 
L 103.138813 -79.396224 
L 99.661944 -81.36281 
L 96.185075 -83.326605 
L 92.708207 -85.232251 
L 89.231338 -87.021561 
L 85.754469 -88.635289 
L 82.2776 -90.015185 
L 78.800731 -91.106256 
L 75.323863 -91.859119 
L 71.846994 -92.232294 
L 68.370125 -92.194289 
L 64.893256 -91.725329 
L 61.416387 -90.818582 
L 57.939519 -89.480782 
L 54.46265 -87.732177 
L 50.985781 -85.605786 
L 47.508912 -83.145995 
L 44.032043 -80.406575 
L 40.555175 -77.44825 
L 37.078306 -74.335974 
L 33.601437 -71.136101 
L 30.124568 -67.913614 
L 26.6477 -64.729593 
L 23.170831 -61.639068 
L 19.693962 -58.68934 
L 16.217093 -55.918862 
L 12.740224 -53.356671 
L 9.263356 -51.022371 
L 5.786487 -48.926591 
L 2.309618 -47.071848 
L -1.167251 -45.453701 
L -4.64412 -44.062117 
L -8.120988 -42.882915 
L -11.597857 -41.899233 
L -15.074726 -41.092936 
L -18.551595 -40.445904 
L -22.028463 -39.941199 
L -25.505332 -39.564074 
L -28.982201 -39.302848 
L -32.45907 -39.149647 
L -35.935939 -39.101038 
L -39.412807 -39.158568 
z
" id="m883367c726" style="stroke:#ffffff;stroke-opacity:0.7;"/>
    </defs>
    <g clip-path="url(#p0bff3ad8ee)">
     <use style="fill:#dd8452;fill-opacity:0.7;stroke:#ffffff;stroke-opacity:0.7;" x="0" xlink:href="#m883367c726" y="345.6"/>
    </g>
   </g>
   <g id="line2d_12">
    <path clip-path="url(#p0bff3ad8ee)" d="M 15.424769 307.056769 
L 17.554884 306.803744 
L 19.684999 306.395495 
L 21.815114 305.773989 
L 23.945229 304.861634 
L 26.075344 303.559324 
L 28.205459 301.74559 
L 30.335574 299.277496 
L 32.465689 295.993902 
L 34.595804 291.721565 
L 36.725919 286.284348 
L 38.856034 279.515381 
L 40.986149 271.271629 
L 43.116264 261.449816 
L 45.246379 250.00232 
L 47.376494 236.951341 
L 49.506609 222.399644 
L 51.636724 206.536359 
L 55.896954 172.054989 
L 60.157184 136.572031 
L 62.287299 119.626147 
L 64.417414 103.858453 
L 66.547529 89.722024 
L 68.677644 77.611773 
L 70.807759 67.841196 
L 72.937874 60.624094 
L 75.067989 56.062805 
L 77.198104 54.144 
L 79.328219 54.742545 
L 81.458334 57.633222 
L 83.588449 62.509386 
L 85.718564 69.006934 
L 87.848679 76.731367 
L 92.108909 94.294858 
L 96.369139 112.420095 
L 98.499254 121.064986 
L 100.629369 129.234234 
L 102.759484 136.864504 
L 104.889599 143.950302 
L 107.019714 150.531704 
L 109.149829 156.680387 
L 113.410059 168.04018 
L 119.800404 183.977913 
L 126.190749 199.547931 
L 130.450979 209.467886 
L 132.581094 214.116814 
L 134.711209 218.471584 
L 136.841324 222.47662 
L 138.971439 226.091361 
L 141.101554 229.294319 
L 143.231669 232.084879 
L 145.361784 234.482813 
L 147.491899 236.525761 
L 149.622014 238.265189 
L 151.752129 239.761446 
L 156.012359 242.27952 
L 164.532819 246.933327 
L 168.793049 249.576477 
L 175.183394 253.933867 
L 179.443624 256.818658 
L 183.703854 259.423416 
L 187.964084 261.620128 
L 192.224314 263.44689 
L 200.744775 266.863264 
L 205.005005 268.971912 
L 209.265235 271.531557 
L 213.525465 274.465735 
L 222.045925 280.49288 
L 226.306155 283.080119 
L 230.566385 285.253704 
L 243.347075 291.187471 
L 247.607305 293.695309 
L 260.387995 301.84062 
L 262.51811 302.94519 
L 264.648225 303.913216 
L 266.77834 304.73874 
L 268.908455 305.423793 
L 271.03857 305.976721 
L 275.2988 306.738488 
L 279.55903 307.135763 
L 283.81926 307.246759 
L 285.949375 307.195567 
L 285.949375 307.195567 
" style="fill:none;stroke:#4c72b0;stroke-linecap:round;stroke-opacity:0.7;stroke-width:1.5;"/>
   </g>
   <g id="line2d_13">
    <path clip-path="url(#p0bff3ad8ee)" d="M -1 300.06846 
L 2.309618 298.528152 
L 5.786487 296.673409 
L 9.263356 294.577629 
L 12.740224 292.243329 
L 16.217093 289.681138 
L 19.693962 286.91066 
L 26.6477 280.870407 
L 40.555175 268.15175 
L 44.032043 265.193425 
L 47.508912 262.454005 
L 50.985781 259.994214 
L 54.46265 257.867823 
L 57.939519 256.119218 
L 61.416387 254.781418 
L 64.893256 253.874671 
L 68.370125 253.405711 
L 71.846994 253.367706 
L 75.323863 253.740881 
L 78.800731 254.493744 
L 82.2776 255.584815 
L 85.754469 256.964711 
L 89.231338 258.578439 
L 96.185075 262.273395 
L 106.615682 268.122029 
L 110.09255 269.946096 
L 113.569419 271.63607 
L 117.046288 273.158313 
L 120.523157 274.485508 
L 124.000026 275.596468 
L 127.476894 276.47579 
L 130.953763 277.113401 
L 134.430632 277.504056 
L 137.907501 277.646842 
L 141.38437 277.54471 
L 144.861238 277.204075 
L 148.338107 276.634482 
L 151.814976 275.848359 
L 155.291845 274.860823 
L 158.768713 273.689542 
L 162.245582 272.354615 
L 169.19932 269.285504 
L 176.153057 265.856131 
L 190.060533 258.813043 
L 197.01427 255.615431 
L 203.968008 252.816653 
L 210.921745 250.421415 
L 228.306089 244.918463 
L 231.782958 243.53738 
L 235.259827 241.930272 
L 238.736696 240.041309 
L 242.213564 237.821752 
L 245.690433 235.234036 
L 249.167302 232.255771 
L 252.644171 228.883381 
L 256.121039 225.135106 
L 259.597908 221.053084 
L 266.551646 212.179948 
L 273.505383 203.078587 
L 276.982252 198.780823 
L 280.459121 194.855045 
L 283.93599 191.456492 
L 287.412859 188.733522 
L 290.889727 186.819925 
L 294.366596 185.827695 
L 297.843465 185.84076 
L 301.320334 186.910113 
L 304.797202 189.050717 
L 308.274071 192.240398 
L 311.75094 196.420826 
L 315.227809 201.500491 
L 318.704678 207.359466 
L 322.181546 213.855585 
L 325.658415 220.831604 
L 332.612153 235.564607 
L 339.56589 250.283383 
L 343.042759 257.290045 
L 346.519628 263.914933 
L 349.996497 270.076913 
L 353.473365 275.71878 
L 356.950234 280.80644 
L 360.427103 285.32702 
L 363.903972 289.286166 
L 367.380841 292.704814 
L 370.857709 295.61572 
L 374.334578 298.059978 
L 377.811447 300.083745 
L 381.288316 301.735298 
L 384.765185 303.062545 
L 388.242053 304.111013 
L 391.718922 304.922319 
L 395.195791 305.533087 
L 398.67266 305.974269 
L 402.149529 306.270788 
L 402.149529 306.270788 
" style="fill:none;stroke:#dd8452;stroke-linecap:round;stroke-opacity:0.7;stroke-width:1.5;"/>
   </g>
   <g id="patch_3">
    <path d="M 57.6 307.584 
L 57.6 41.472 
" style="fill:none;stroke:#ffffff;stroke-linecap:square;stroke-linejoin:miter;stroke-width:1.25;"/>
   </g>
   <g id="patch_4">
    <path d="M 414.72 307.584 
L 414.72 41.472 
" style="fill:none;stroke:#ffffff;stroke-linecap:square;stroke-linejoin:miter;stroke-width:1.25;"/>
   </g>
   <g id="patch_5">
    <path d="M 57.6 307.584 
L 414.72 307.584 
" style="fill:none;stroke:#ffffff;stroke-linecap:square;stroke-linejoin:miter;stroke-width:1.25;"/>
   </g>
   <g id="patch_6">
    <path d="M 57.6 41.472 
L 414.72 41.472 
" style="fill:none;stroke:#ffffff;stroke-linecap:square;stroke-linejoin:miter;stroke-width:1.25;"/>
   </g>
   <g id="legend_1">
    <g id="patch_7">
     <path d="M 357.157344 81.391687 
L 407.02 81.391687 
Q 409.22 81.391687 409.22 79.191688 
L 409.22 49.172 
Q 409.22 46.972 407.02 46.972 
L 357.157344 46.972 
Q 354.957344 46.972 354.957344 49.172 
L 354.957344 79.191688 
Q 354.957344 81.391687 357.157344 81.391687 
z
" style="fill:#eaeaf2;opacity:0.8;stroke:#cccccc;stroke-linejoin:miter;"/>
    </g>
    <g id="line2d_14">
     <path d="M 359.357344 55.395594 
L 381.357344 55.395594 
" style="fill:none;stroke:#4c72b0;stroke-linecap:round;stroke-opacity:0.7;stroke-width:1.5;"/>
    </g>
    <g id="line2d_15"/>
    <g id="text_14">
     <!-- src -->
     <g style="fill:#262626;" transform="translate(390.157344 59.245594)scale(0.11 -0.11)">
      <use xlink:href="#ArialMT-115"/>
      <use x="50" xlink:href="#ArialMT-114"/>
      <use x="83.300781" xlink:href="#ArialMT-99"/>
     </g>
    </g>
    <g id="line2d_16">
     <path d="M 359.357344 70.955438 
L 381.357344 70.955438 
" style="fill:none;stroke:#dd8452;stroke-linecap:round;stroke-opacity:0.7;stroke-width:1.5;"/>
    </g>
    <g id="line2d_17"/>
    <g id="text_15">
     <!-- src -->
     <g style="fill:#262626;" transform="translate(390.157344 74.805438)scale(0.11 -0.11)">
      <use xlink:href="#ArialMT-115"/>
      <use x="50" xlink:href="#ArialMT-114"/>
      <use x="83.300781" xlink:href="#ArialMT-99"/>
     </g>
    </g>
   </g>
  </g>
 </g>
 <defs>
  <clipPath id="p0bff3ad8ee">
   <rect height="266.112" width="357.12" x="57.6" y="41.472"/>
  </clipPath>
 </defs>
</svg>
